<svg width="30" height="30" viewBox="0 0 30 30" fill="none" xmlns="http://www.w3.org/2000/svg">
<path d="M25.5 9H5.5C4.11929 9 3 10.1193 3 11.5V24C3 25.3807 4.11929 26.5 5.5 26.5H25.5C26.8807 26.5 28 25.3807 28 24V11.5C28 10.1193 26.8807 9 25.5 9Z" stroke="black" stroke-width="2" stroke-linecap="round" stroke-linejoin="round"/>
<path d="M20.5 26.5V6.5C20.5 5.83696 20.2366 5.20107 19.7678 4.73223C19.2989 4.26339 18.663 4 18 4H13C12.337 4 11.7011 4.26339 11.2322 4.73223C10.7634 5.20107 10.5 5.83696 10.5 6.5V26.5" stroke="black" stroke-width="2" stroke-linecap="round" stroke-linejoin="round"/>
</svg>
