<svg width="30" height="30" viewBox="0 0 30 30" fill="none" xmlns="http://www.w3.org/2000/svg">
<path d="M3.92957 6.89033L3.92963 6.89032L14.082 4.54727C14.0825 4.54716 14.083 4.54705 14.0835 4.54694C14.2288 4.51448 14.3651 4.5 14.5 4.5C14.6361 4.5 14.7723 4.51474 14.9054 4.54456C14.9059 4.54466 14.9063 4.54476 14.9068 4.54486L25.0704 6.89031C25.9131 7.08485 26.5 7.82199 26.5 8.6875C26.5 9.55301 25.9131 10.2901 25.0704 10.4847L22.9813 10.9667L22.5938 11.0561V11.4539V18.0625C22.5938 18.869 22.1468 19.6965 20.8977 20.3502C19.629 21.0141 17.5731 21.4688 14.5 21.4688C11.4269 21.4688 9.37104 21.0141 8.10233 20.3502C6.85316 19.6965 6.40625 18.869 6.40625 18.0625V11.4539V11.0561L6.01863 10.9667L3.92894 10.4847C3.92889 10.4847 3.92884 10.4847 3.92878 10.4847C3.08688 10.2901 2.5 9.55304 2.5 8.6875C2.5 7.82183 3.08622 7.08486 3.92957 6.89033ZM7.58117 11.3276L6.96875 11.1863V11.8148V18.0625C6.96875 18.494 7.24672 18.8742 7.57618 19.1668C7.92373 19.4754 8.41703 19.7679 9.03771 20.0211C10.2827 20.5289 12.1074 20.9062 14.5 20.9062C16.8926 20.9062 18.7173 20.5289 19.9623 20.0211C20.583 19.7679 21.0763 19.4754 21.4238 19.1668C21.7533 18.8742 22.0312 18.494 22.0312 18.0625V11.8148V11.1863L21.4188 11.3276L14.9163 12.8279C14.916 12.828 14.9157 12.8281 14.9154 12.8281C14.7723 12.8604 14.6354 12.875 14.5 12.875C14.3637 12.875 14.2268 12.8602 14.0937 12.8304C14.0933 12.8303 14.0929 12.8302 14.0925 12.8301L7.58117 11.3276ZM14.7801 12.282L14.7801 12.282L14.7882 12.2802L24.9445 9.93641L24.9449 9.93631C25.5251 9.80183 25.9375 9.28462 25.9375 8.6875C25.9375 8.09038 25.5251 7.57317 24.9449 7.43869L24.9445 7.43859L14.7882 5.09484L14.7882 5.09479L14.7814 5.09332C14.6932 5.07425 14.599 5.0625 14.5 5.0625C14.401 5.0625 14.3068 5.07425 14.2186 5.09332L14.2185 5.09328L14.2118 5.09484L4.05554 7.43859L4.0553 7.43864C3.47369 7.57315 3.0625 8.09088 3.0625 8.6875C3.0625 9.28412 3.47369 9.80185 4.0553 9.93636L4.05554 9.93641L14.2118 12.2802L14.2118 12.2802L14.2186 12.2817C14.307 12.3008 14.402 12.3125 14.5 12.3125C14.5987 12.3125 14.6925 12.3007 14.7801 12.282ZM25.1562 12.5938C25.1562 12.4379 25.2816 12.3125 25.4375 12.3125C25.5929 12.3125 25.7188 12.4382 25.7188 12.5938V19.625C25.7188 19.7806 25.5929 19.9062 25.4375 19.9062C25.2816 19.9062 25.1562 19.7809 25.1562 19.625V12.5938ZM25.2141 21.8735C25.3521 21.7071 25.429 21.6896 25.4375 21.6877C25.4458 21.6896 25.5226 21.7071 25.6605 21.8735C25.8037 22.0464 25.9495 22.3066 26.0812 22.6202C26.348 23.2555 26.5 23.969 26.5 24.3125C26.5 24.8989 26.0239 25.375 25.4375 25.375C24.8505 25.375 24.375 24.899 24.375 24.3125C24.375 23.9689 24.5268 23.2554 24.7935 22.6201C24.9252 22.3065 25.0709 22.0464 25.2141 21.8735Z" fill="black" stroke="black"/>
</svg>
