<svg width="30" height="30" viewBox="0 0 30 30" fill="none" xmlns="http://www.w3.org/2000/svg">
<path d="M24.7903 12.3281L22.3528 9.89059L11.7665 20.4787L14.2097 22.9218L24.7903 12.3281V12.3281ZM25.4531 11.6653L27.074 10.0425C27.4397 9.67684 27.4369 9.08152 27.0694 8.71496L25.9631 7.61152C25.5947 7.24402 25.0022 7.24121 24.6347 7.60871L23.0156 9.22871L25.4522 11.6653H25.4531ZM11.16 21.1978L10.56 24.1162L13.499 23.5378L11.16 21.1987V21.1978ZM20.625 17.8125V27.1837C20.625 28.2281 19.7869 29.0625 18.7528 29.0625H4.6856C3.64779 29.0625 2.81342 28.2215 2.81342 27.1837V7.50277C2.81342 6.4584 3.65154 5.62402 4.6856 5.62402H5.62592C5.62873 4.58434 6.46779 3.74902 7.50373 3.74902H8.43842C8.43935 2.1909 9.70217 0.936523 11.2594 0.936523H12.18C13.7353 0.936523 15 2.19559 15.0009 3.74902H15.9356C16.9744 3.74902 17.8106 4.58809 17.8134 5.62402H18.7537C19.7915 5.62402 20.6259 6.46496 20.6259 7.50277V10.3115L23.9822 6.95527C24.7256 6.21184 25.905 6.21652 26.6353 6.9459L27.7415 8.05121C28.469 8.77871 28.4681 9.96934 27.7322 10.7043L20.6259 17.8106L20.625 17.8125ZM19.6875 11.25V7.50277C19.6875 6.9834 19.2609 6.56246 18.75 6.56246H17.8125C17.8097 7.60215 16.9706 8.43746 15.9347 8.43746H7.50279C6.46404 8.43746 5.62779 7.5984 5.62498 6.56246H4.68748C4.16998 6.56246 3.74998 6.97402 3.74998 7.50277V27.1846C3.74998 27.704 4.17654 28.125 4.68748 28.125H18.75C19.2675 28.125 19.6875 27.7134 19.6875 27.1846V18.75L14.0625 24.375L9.37498 25.3125L10.3125 20.625L19.6875 11.25ZM9.37498 4.68746H7.49623C6.9806 4.68746 6.56248 5.10277 6.56248 5.62402V6.5634C6.56248 7.0809 6.97967 7.49996 7.49623 7.49996H15.9422C16.4578 7.49996 16.8759 7.08465 16.8759 6.5634V5.62402C16.8759 5.10652 16.4587 4.68746 15.9422 4.68746H14.0634V3.74809C14.0634 2.71402 13.2253 1.87496 12.1837 1.87496H11.2556C10.2178 1.87496 9.37592 2.71684 9.37592 3.74809V4.68746H9.37498ZM11.7187 4.68746C11.9775 4.68746 12.1875 4.47746 12.1875 4.21871C12.1875 3.95996 11.9775 3.74996 11.7187 3.74996C11.46 3.74996 11.25 3.95996 11.25 4.21871C11.25 4.47746 11.46 4.68746 11.7187 4.68746Z" fill="black" stroke="black" stroke-width="0.8"/>
</svg>
