<svg width="30" height="30" viewBox="0 0 30 30" fill="none" xmlns="http://www.w3.org/2000/svg">
<path d="M26.8884 10.4616C26.2378 9.57375 25.3303 8.53688 24.3347 7.54031C23.3391 6.54375 22.3012 5.63719 21.4134 4.98656C19.9022 3.87844 19.17 3.75 18.75 3.75H7.96875C6.67594 3.75 5.625 4.80187 5.625 6.09375V27.6562C5.625 28.9481 6.67594 30 7.96875 30H25.7812C27.0731 30 28.125 28.9481 28.125 27.6562V13.125C28.125 12.705 27.9966 11.9719 26.8884 10.4616V10.4616ZM23.0091 8.86594C23.9081 9.765 24.6141 10.5769 25.1353 11.25H20.625V6.73969C21.2981 7.26094 22.11 7.96687 23.0091 8.86594ZM26.25 27.6562C26.25 27.9103 26.0353 28.125 25.7812 28.125H7.96875C7.71469 28.125 7.5 27.9103 7.5 27.6562V6.09375C7.5 5.83969 7.71469 5.625 7.96875 5.625C7.96875 5.625 18.7491 5.625 18.75 5.625V12.1875C18.75 12.705 19.17 13.125 19.6875 13.125H26.25V27.6562Z" fill="black"/>
<path d="M17.6634 1.23656C16.1522 0.128437 15.42 0 15 0H4.21875C2.92687 0 1.875 1.05094 1.875 2.34375V23.9062C1.875 25.0378 2.68125 25.9847 3.75 26.2031V2.34375C3.75 2.08969 3.96469 1.875 4.21875 1.875H18.4828C18.2006 1.6425 17.925 1.42781 17.6644 1.23656H17.6634Z" fill="black"/>
</svg>
