<svg width="20" height="20" viewBox="0 0 20 20" fill="none" xmlns="http://www.w3.org/2000/svg">
<path d="M11.2195 1.30641C11.2789 1.44436 11.2828 1.99884 8.78327 3.26133L5.4734 4.78136C4.62042 5.21239 4.24203 5.49699 3.69633 5.65373C3.31423 5.76323 2.9496 5.48411 2.9496 5.48411C2.9496 5.48411 1.84921 4.42398 1.5569 4.18566C1.26509 3.94733 1.29003 3.82602 1.66414 3.69719C1.89709 3.61721 3.22544 3.96182 3.7916 4.11588C4.45952 3.68646 5.06957 3.31823 5.35839 3.15076C4.66204 2.59627 3.35913 1.56084 2.94361 1.24521C2.54506 0.941937 2.9486 0.832972 2.9486 0.832972C3.13217 0.779831 3.52823 0.710587 3.72775 0.755676C5.08504 1.0611 7.35067 1.86733 7.52425 1.92906C7.93927 1.69503 8.58574 1.34291 8.9818 1.14269C10.0168 0.619873 11.1402 1.12283 11.2195 1.30641Z" fill="#C9E0E8"/>
<path d="M10.0002 4.4447C6.59585 4.4447 3.82733 7.21401 3.82733 10.6173C3.82733 14.0206 6.59585 16.7899 10.0002 16.7899C13.4034 16.7899 16.1725 14.0206 16.1725 10.6173C16.1725 7.21401 13.4034 4.4447 10.0002 4.4447V4.4447ZM15.2647 10.6173C15.2647 11.8216 14.8558 12.932 14.1742 13.8193C13.9814 13.6689 13.7763 13.2619 13.9691 12.8401C14.164 12.4157 14.2148 11.4332 14.1697 11.0507C14.1273 10.6687 13.9286 9.74863 13.3892 9.73963C12.8504 9.73191 12.4807 9.55381 12.1605 8.91469C11.4964 7.58501 13.4072 7.32975 12.743 6.59418C12.5572 6.38714 11.5967 7.4442 11.4559 6.03543C11.4469 5.93448 11.5427 5.78338 11.6719 5.6265C13.7576 6.32734 15.2647 8.29936 15.2647 10.6173V10.6173ZM9.27693 5.40467C9.15092 5.65029 8.81851 5.74995 8.61663 5.93448C8.17685 6.33249 7.98783 6.27719 7.75122 6.65912C7.51269 7.04105 6.74373 7.5908 6.74373 7.86728C6.74373 8.14376 7.13207 8.4691 7.32624 8.40609C7.52041 8.34179 8.03283 8.34565 8.33373 8.4511C8.63527 8.55783 10.8502 8.66457 10.1443 10.5369C9.92052 11.1323 8.94003 11.032 8.67899 12.0177C8.63977 12.1624 8.50411 12.7803 8.49575 12.9822C8.47968 13.2947 8.71693 14.4726 8.41539 14.4726C8.11256 14.4726 7.29795 13.4188 7.29795 13.2278C7.29795 13.0368 7.08706 12.3675 7.08706 11.7939C7.08706 11.2211 6.11107 11.2301 6.11107 10.4681C6.11107 9.78142 6.64022 9.43936 6.52127 9.10951C6.4049 8.78159 5.4752 8.77066 5.0875 8.73015C5.76452 6.97418 7.3571 5.67086 9.27693 5.40467V5.40467ZM8.34402 15.6132C8.66035 15.4461 8.6925 15.23 8.97925 15.2191C9.30715 15.2043 9.57397 15.0911 9.94367 15.0095C10.2716 14.9381 10.8586 14.605 11.3749 14.5626C11.8108 14.5272 12.6704 14.5851 12.9019 15.0056C12.0692 15.5592 11.0707 15.882 9.9996 15.882C9.4216 15.882 8.8648 15.7862 8.34402 15.6132V15.6132Z" fill="#C9E0E8"/>
<circle cx="9.99997" cy="10.6173" r="8.39163" stroke="#C9E0E8" stroke-width="0.5" stroke-dasharray="1 1"/>
</svg>
