<svg width="20" height="20" viewBox="0 0 20 20" fill="none" xmlns="http://www.w3.org/2000/svg">
<path d="M18.2508 2.23305C18.3577 2.46386 18.3649 3.39161 13.8644 5.50396L9.45203 7.575C7.91627 8.29618 5.68806 9.24458 4.70553 9.50683C4.01758 9.69004 3.36106 9.22303 3.36106 9.22303C3.36106 9.22303 1.37983 7.44926 0.853538 7.0505C0.328144 6.65174 0.37305 6.44877 1.04663 6.23322C1.46605 6.09941 3.85771 6.67599 4.87707 6.93375C6.07963 6.21526 7.17802 5.59916 7.69802 5.31895C6.44426 4.3912 4.09841 2.65875 3.35028 2.13066C2.63269 1.62323 3.35926 1.44092 3.35926 1.44092C3.68977 1.352 4.40286 1.23615 4.76211 1.31159C7.20586 1.82261 11.2851 3.17157 11.5976 3.27485C12.3448 2.88328 13.5088 2.29412 14.2219 1.95912C16.0855 1.08437 18.108 1.92589 18.2508 2.23305V2.23305Z" fill="#C9E0E8"/>
<path d="M13.8413 7.38748C10.718 7.38748 8.1781 9.92801 8.1781 13.0501C8.1781 16.1723 10.718 18.7128 13.8413 18.7128C16.9635 18.7128 19.504 16.1723 19.504 13.0501C19.504 9.92801 16.9635 7.38748 13.8413 7.38748V7.38748ZM18.6711 13.0501C18.6711 14.1549 18.296 15.1736 17.6707 15.9876C17.4937 15.8496 17.3056 15.4762 17.4825 15.0893C17.6613 14.7 17.7079 13.7987 17.6666 13.4477C17.6276 13.0973 17.4454 12.2532 16.9505 12.245C16.4562 12.2379 16.117 12.0745 15.8233 11.4882C15.2139 10.2684 16.967 10.0342 16.3577 9.35938C16.1872 9.16945 15.306 10.1392 15.1768 8.84679C15.1685 8.75419 15.2564 8.61557 15.375 8.47164C17.2885 9.11459 18.6711 10.9237 18.6711 13.0501V13.0501ZM13.1777 8.26814C13.0621 8.49347 12.7572 8.5849 12.572 8.75419C12.1685 9.11931 11.9951 9.06858 11.778 9.41896C11.5592 9.76933 10.8537 10.2737 10.8537 10.5273C10.8537 10.7809 11.21 11.0794 11.3881 11.0216C11.5663 10.9626 12.0364 10.9662 12.3124 11.0629C12.5891 11.1608 14.6211 11.2587 13.9735 12.9764C13.7682 13.5226 12.8687 13.4306 12.6292 14.3348C12.5932 14.4676 12.4687 15.0344 12.4611 15.2196C12.4463 15.5063 12.664 16.5869 12.3873 16.5869C12.1095 16.5869 11.3622 15.6201 11.3622 15.445C11.3622 15.2698 11.1687 14.6557 11.1687 14.1296C11.1687 13.604 10.2733 13.6123 10.2733 12.9133C10.2733 12.2833 10.7587 11.9695 10.6496 11.6669C10.5428 11.3661 9.68991 11.3561 9.33422 11.3189C9.95535 9.70799 11.4164 8.51234 13.1777 8.26814V8.26814ZM12.3219 17.6333C12.6121 17.48 12.6416 17.2818 12.9046 17.2718C13.2055 17.2582 13.4503 17.1544 13.7894 17.0795C14.0903 17.014 14.6288 16.7084 15.1025 16.6695C15.5024 16.6371 16.291 16.6902 16.5034 17.0759C15.7395 17.5838 14.8235 17.8799 13.8407 17.8799C13.3105 17.8799 12.7996 17.792 12.3219 17.6333V17.6333Z" fill="#C9E0E8"/>
</svg>
