<svg width="30" height="30" viewBox="0 0 30 30" fill="none" xmlns="http://www.w3.org/2000/svg">
<g clip-path="url(#clip0_93_46)">
<path d="M17.8905 14.9998C17.8905 13.4074 16.5916 12.1086 14.9993 12.1086C13.407 12.1086 12.1081 13.4074 12.1081 14.9998C12.1081 16.5921 13.407 17.891 14.9993 17.891C16.5916 17.891 17.8905 16.5921 17.8905 14.9998ZM19.4488 14.9998C19.4488 17.4616 17.4611 19.4493 14.9993 19.4493C12.5374 19.4493 10.5497 17.4616 10.5497 14.9998C10.5497 12.5379 12.5374 10.5502 14.9993 10.5502C17.4611 10.5502 19.4488 12.5379 19.4488 14.9998ZM20.6689 10.3695C20.6689 10.9456 20.2056 11.4082 19.6302 11.4082C19.0549 11.4082 18.5916 10.9449 18.5916 10.3695C18.5916 9.79418 19.0549 9.33087 19.6302 9.33087C20.2056 9.33087 20.6689 9.79418 20.6689 10.3695ZM14.9993 7.88455C13.7344 7.88455 11.0239 7.78263 9.88331 8.23438C9.48794 8.39267 9.19449 8.58422 8.88947 8.88924C8.58444 9.19426 8.39218 9.48771 8.23461 9.88308C7.78286 11.0237 7.88478 13.7342 7.88478 14.999C7.88478 16.2639 7.78286 18.9744 8.23461 20.115C8.3929 20.5104 8.58444 20.8038 8.88947 21.1089C9.19449 21.4139 9.48794 21.6061 9.88331 21.7637C11.0239 22.2155 13.7344 22.1135 14.9993 22.1135C16.2642 22.1135 18.9747 22.2155 20.1152 21.7637C20.5106 21.6054 20.8041 21.4139 21.1091 21.1089C21.4141 20.8038 21.6064 20.5104 21.7639 20.115C22.2157 18.9744 22.1138 16.2639 22.1138 14.999C22.1138 13.7342 22.2157 11.0237 21.7639 9.88308C21.6057 9.48771 21.4141 9.19426 21.1091 8.88924C20.8041 8.58422 20.5106 8.39195 20.1152 8.23438C18.9747 7.78263 16.2642 7.88455 14.9993 7.88455V7.88455ZM23.6729 14.9998C23.6729 16.1967 23.6844 17.3828 23.6165 18.5798C23.5485 19.969 23.2327 21.1999 22.2164 22.2162C21.2002 23.2324 19.9692 23.549 18.58 23.6162C17.3831 23.6842 16.197 23.6726 15 23.6726C13.803 23.6726 12.6169 23.6842 11.42 23.6162C10.0308 23.5483 8.79984 23.2324 7.78358 22.2162C6.76733 21.1999 6.45075 19.969 6.38352 18.5798C6.31558 17.3828 6.32715 16.1967 6.32715 14.9998C6.32715 13.8028 6.31558 12.6167 6.38352 11.4198C6.45147 10.0305 6.76733 8.79961 7.78358 7.78336C8.79984 6.7671 10.0308 6.45052 11.42 6.3833C12.6169 6.31535 13.803 6.32692 15 6.32692C16.197 6.32692 17.3831 6.31535 18.58 6.3833C19.9692 6.45124 21.2002 6.7671 22.2164 7.78336C23.2327 8.79961 23.5493 10.0305 23.6165 11.4198C23.6844 12.6167 23.6729 13.8028 23.6729 14.9998Z" fill="black"/>
<path d="M29.5 15C29.5 23.0081 23.0081 29.5 15 29.5C6.99187 29.5 0.5 23.0081 0.5 15C0.5 6.99187 6.99187 0.5 15 0.5C23.0081 0.5 29.5 6.99187 29.5 15Z" stroke="black"/>
</g>
<defs>
<clipPath id="clip0_93_46">
<rect width="30" height="30" fill="white"/>
</clipPath>
</defs>
</svg>
