<svg width="30" height="30" viewBox="0 0 30 30" fill="none" xmlns="http://www.w3.org/2000/svg">
<path d="M22.4013 23.3912C21.6031 24.2029 20.3095 24.2029 19.513 23.3912L15.0009 18.1473L10.4888 23.3895C9.6905 24.2012 8.39695 24.2012 7.60039 23.3895C6.80214 22.5778 6.80214 21.2625 7.60039 20.4525L12.2946 15.0009L7.59869 9.54574C6.80044 8.73405 6.80044 7.42046 7.59869 6.60877C8.39695 5.79708 9.68879 5.79708 10.487 6.60877L15.0009 11.8545L19.513 6.60877C20.3112 5.79708 21.6031 5.79708 22.4013 6.60877C23.1996 7.42046 23.1996 8.73578 22.4013 9.54574L17.7071 15.0009L22.4013 20.4525C23.1996 21.2642 23.1996 22.5795 22.4013 23.3912V23.3912Z" fill="black"/>
</svg>
