<svg width="30" height="30" viewBox="0 0 30 30" fill="none" xmlns="http://www.w3.org/2000/svg">
<path d="M26.4286 13.2143H3.57143C2.58571 13.2143 2.5 14.0125 2.5 15C2.5 15.9875 2.58571 16.7857 3.57143 16.7857H26.4286C27.4143 16.7857 27.5 15.9875 27.5 15C27.5 14.0125 27.4143 13.2143 26.4286 13.2143ZM26.4286 20.3571H3.57143C2.58571 20.3571 2.5 21.1553 2.5 22.1428C2.5 23.1303 2.58571 23.9286 3.57143 23.9286H26.4286C27.4143 23.9286 27.5 23.1303 27.5 22.1428C27.5 21.1553 27.4143 20.3571 26.4286 20.3571ZM3.57143 9.64284H26.4286C27.4143 9.64284 27.5 8.84463 27.5 7.85713C27.5 6.86963 27.4143 6.07141 26.4286 6.07141H3.57143C2.58571 6.07141 2.5 6.86963 2.5 7.85713C2.5 8.84463 2.58571 9.64284 3.57143 9.64284V9.64284Z" fill="black"/>
</svg>
