<svg width="30" height="30" viewBox="0 0 30 30" fill="none" xmlns="http://www.w3.org/2000/svg">
<path d="M16.7857 6.53346C16.7857 6.72319 16.7801 7.35879 16.769 7.53792L16.6741 11.1595C16.673 11.1784 16.677 11.1971 16.6859 11.2138C16.6948 11.2304 16.7081 11.2443 16.7243 11.2539L25.5156 18.4848C25.5736 18.5287 25.6215 18.5847 25.6558 18.6488C25.6901 18.713 25.71 18.7839 25.7142 18.8565V20.357L16.7299 16.2834C16.7093 16.2737 16.6866 16.2695 16.6639 16.2712C16.6412 16.2729 16.6194 16.2805 16.6006 16.2933C16.5817 16.306 16.5665 16.3234 16.5564 16.3438C16.5463 16.3642 16.5417 16.3868 16.543 16.4095L16.4425 23.2002C16.4404 23.2709 16.4549 23.3411 16.485 23.405C16.515 23.469 16.5598 23.525 16.6155 23.5685L19.1267 25.6332C19.3443 25.8006 19.4615 26.1143 19.4615 26.3871V27.4396C19.4615 27.5116 19.394 27.501 19.3259 27.4814L15.3404 26.3743C15.127 26.2906 14.8898 26.2906 14.6764 26.3743L10.7032 27.4826C10.5943 27.5155 10.5358 27.5116 10.5358 27.3838V26.3838C10.5358 25.9296 10.5949 25.8676 10.8873 25.6355L13.4375 23.5317C13.4928 23.4878 13.5373 23.4318 13.5673 23.3679C13.5973 23.304 13.6121 23.234 13.6105 23.1634L13.4598 16.4291C13.4593 16.4045 13.4527 16.3805 13.4408 16.3591C13.4289 16.3377 13.4119 16.3195 13.3913 16.3061C13.3707 16.2928 13.3472 16.2846 13.3228 16.2824C13.2984 16.2802 13.2738 16.284 13.2511 16.2934L4.28579 20.357V18.8704C4.29001 18.7979 4.30991 18.7272 4.34412 18.6632C4.37832 18.5991 4.426 18.5432 4.48389 18.4994L13.2701 11.2533C13.3036 11.2315 13.3203 11.1417 13.3203 11.1032L13.2255 7.53736C13.2143 7.35321 13.2087 6.72319 13.2087 6.5329C13.2087 4.06249 13.8879 2.5 15 2.5C16.1122 2.5 16.7857 4.0558 16.7857 6.53346Z" stroke="black" stroke-width="1.63" stroke-linecap="round" stroke-linejoin="round"/>
</svg>
