<svg width="30" height="30" viewBox="0 0 30 30" fill="none" xmlns="http://www.w3.org/2000/svg">
<path d="M16.0715 7.03346C16.0715 7.22319 16.0659 7.85879 16.0547 8.03792L15.9599 11.6595C15.9587 11.6784 15.9628 11.6971 15.9717 11.7138C15.9805 11.7304 15.9938 11.7443 16.0101 11.7539L24.8013 18.9848C24.8594 19.0287 24.9072 19.0847 24.9415 19.1488C24.9758 19.213 24.9958 19.2839 25 19.3565V20.857L16.0157 16.7834C15.9951 16.7737 15.9724 16.7695 15.9497 16.7712C15.927 16.7729 15.9052 16.7805 15.8863 16.7933C15.8675 16.806 15.8522 16.8234 15.8421 16.8438C15.832 16.8642 15.8274 16.8868 15.8287 16.9095L15.7283 23.7002C15.7262 23.7709 15.7407 23.8411 15.7708 23.905C15.8008 23.969 15.8455 24.025 15.9013 24.0685L18.4124 26.1332C18.6301 26.3006 18.7472 26.6143 18.7472 26.8871V27.9396C18.7472 28.0116 18.6797 28.001 18.6116 27.9814L14.6262 26.8743C14.4127 26.7906 14.1756 26.7906 13.9621 26.8743L9.98893 27.9826C9.88011 28.0155 9.82152 28.0116 9.82152 27.8838V26.8838C9.82152 26.4296 9.88067 26.3676 10.1731 26.1355L12.7233 24.0317C12.7786 23.9878 12.823 23.9318 12.853 23.8679C12.883 23.804 12.8978 23.734 12.8963 23.6634L12.7456 16.9291C12.745 16.9045 12.7385 16.8805 12.7266 16.8591C12.7146 16.8377 12.6976 16.8195 12.6771 16.8061C12.6565 16.7928 12.633 16.7846 12.6086 16.7824C12.5841 16.7802 12.5595 16.784 12.5369 16.7934L3.57155 20.857V19.3704C3.57578 19.2979 3.59568 19.2272 3.62988 19.1632C3.66408 19.0991 3.71177 19.0432 3.76966 18.9994L12.5559 11.7533C12.5894 11.7315 12.6061 11.6417 12.6061 11.6032L12.5112 8.03736C12.5001 7.85321 12.4945 7.22319 12.4945 7.0329C12.4945 4.56249 13.1736 3 14.2858 3C15.3979 3 16.0715 4.5558 16.0715 7.03346Z" stroke="black" stroke-width="1.63" stroke-linecap="round" stroke-linejoin="round"/>
</svg>
