<svg width="30" height="30" viewBox="0 0 30 30" fill="none" xmlns="http://www.w3.org/2000/svg">
<path d="M17.4428 15.8786C17.6345 15.8786 19.4686 16.8353 19.5478 16.9707C19.5702 17.0269 19.5702 17.0947 19.5702 17.1393C19.5702 17.421 19.4801 17.7358 19.3785 17.9951C19.1199 18.6255 18.0725 19.0303 17.4313 19.0303C16.891 19.0303 15.7766 18.5578 15.2925 18.3323C13.6831 17.6004 12.6811 16.3512 11.7129 14.922C11.285 14.2916 10.9024 13.515 10.914 12.7385V12.6484C10.9363 11.9057 11.2064 11.3762 11.7467 10.8698C11.9153 10.712 12.0954 10.622 12.3317 10.622C12.4664 10.622 12.6018 10.6558 12.7481 10.6558C13.0521 10.6558 13.1083 10.7459 13.2206 11.0383C13.2992 11.23 13.8733 12.7608 13.8733 12.8732C13.8733 13.3011 13.0967 13.7852 13.0967 14.0438C13.0967 14.1 13.1191 14.1562 13.1529 14.2124C13.4007 14.7411 13.8733 15.3491 14.3012 15.7547C14.8192 16.2504 15.3703 16.5767 16.0006 16.8915C16.0791 16.9369 16.1584 16.97 16.2484 16.97C16.5863 16.97 17.1489 15.8779 17.4414 15.8779L17.4428 15.8786ZM15.1578 21.8442C19.0522 21.8442 22.2262 18.6701 22.2262 14.7757C22.2262 10.8813 19.0522 7.70725 15.1578 7.70725C11.2633 7.70725 8.0893 10.8813 8.0893 14.7757C8.0893 16.2619 8.56188 17.7135 9.44003 18.918L8.55107 21.5409L11.2749 20.6743C12.4232 21.4285 13.7847 21.8449 15.1585 21.8449L15.1578 21.8442ZM15.1578 6.28809C19.8403 6.28809 23.6447 10.0925 23.6447 14.775C23.6447 19.4575 19.8403 23.2619 15.1578 23.2619C13.7285 23.2619 12.3101 22.9017 11.0494 22.2037L6.35532 23.7122L7.88615 19.1535C7.08724 17.8367 6.67085 16.3166 6.67085 14.775C6.67085 10.0925 10.4752 6.28809 15.1578 6.28809V6.28809Z" fill="black"/>
<circle cx="15" cy="15" r="14.5" stroke="black"/>
</svg>
